<?xml version="1.0" standalone="no"?>
<!DOCTYPE svg PUBLIC "-//W3C//DTD SVG 1.1//EN" "http://www.w3.org/Graphics/SVG/1.1/DTD/svg11.dtd" >
<!--
2013-9-30: Created.
-->
<svg>
<metadata>
Created by iconfont
</metadata>
<defs>

<font id="iconfont" horiz-adv-x="1024" >
  <font-face
    font-family="iconfont"
    font-weight="500"
    font-stretch="normal"
    units-per-em="1024"
    ascent="896"
    descent="-128"
  />
    <missing-glyph />
    
    <glyph glyph-name="yingyuana" unicode="&#58909;" d="M44.958-33.01400000000001l934.085 0 0-42.4582-934.085 0 0 42.4582ZM214.791 136.65099999999995l594.417 0 0-42.4582-594.417 0 0 42.4582ZM762.048 656.229c-79.0921-23.3871-163.045-35.9899-250.044-35.9899-91.2723 0-179.197 13.8635-261.669 39.5089 11.4938-3.69591 30.553-9.68944 32.3518-9.38062-2.4341-14.835-5.13236-29.5804-8.07403-44.2374 75.6352-19.9487 155.227-30.6064 237.391-30.6064 82.1614 0 161.749 10.6566 237.382 30.6043-2.94166 14.6581-5.63991 29.4035-8.07403 44.2374C742.436 650.314 752.285 653.234 762.048 656.229ZM894.125 879.673L129.874 879.673c-46.8986 0-84.9164-38.0179-84.9164-84.9164l0-627.776 0-73.0023c111.821 148.793 191.679 322.892 229.657 512.151 2.94166 14.6581 5.63991 29.4035 8.07403 44.2374-1.79884-0.30781-20.8591 5.68467-32.3518 9.38062-5.06359 1.62855-8.66453 2.81286-8.66453 2.81286-0.00327467-0.0229216-0.00764053-0.0458443-0.0109152-0.0676747 0-0.0010912 0-0.00327467-0.0010912-0.00436585-24.6554-154.188-77.9219-298.803-154.243-428.262L87.415 773.526c0 35.1733 28.5139 63.6873 63.6873 63.6873l105.893 0c0-0.00327467 0-0.00545813 0-0.00873173l42.4266 0c0 0.00327467 0 0.00545813 0 0.00873173L724.577 837.2139999999999c0-0.00327467 0-0.00545813 0-0.00873174l42.4266 0c0 0.00327467 0 0.00545813 0 0.00873174l105.893 0c35.1733 0 63.6873-28.5139 63.6873-63.6873l0-539.3c0 0 0 0 0 0l0 0 0 0c-76.3119 129.443-129.575 274.038-154.234 428.206-0.00327467 0.019648-0.00654933 0.0382037-0.00982397 0.0578507-0.00327467 0.0240139-0.00764053 0.0469355-0.0120064 0.0709493 0 0-10.0944-3.2069-20.2817-6.33195-9.76369-2.99515-19.6114-5.91499-20.7346-5.86368 2.4341-14.835 5.13236-29.5804 8.07403-44.2374 37.9786-189.26 117.836-363.358 229.655-512.149l0 1.93091 0 71.0715L979.044 794.755C979.044 841.654 941.025 879.673 894.125 879.673Z"  horiz-adv-x="1024" />

    
    <glyph glyph-name="fangdajing" unicode="&#58893;" d="M1011.975-64.664 785.583 136.177c28.026 35.029 50.8 73.962 67.876 116.211 22.961 56.813 34.604 117.132 34.604 179.274 0 62.144-11.644 122.459-34.604 179.273-22.211 54.957-54.027 104.332-94.561 146.751-40.643 42.532-88.014 75.944-140.797 99.307C563.323 881.241 505.137 893.536 445.16 893.536c-59.979 0-118.166-12.294-172.944-36.542-52.783-23.363-100.154-56.775-140.797-99.307-40.536-42.421-72.35-91.794-94.563-146.751C13.894 554.123 2.251 493.806 2.251 431.662c0-62.143 11.643-122.461 34.605-179.274 22.211-54.954 54.027-104.329 94.563-146.749 40.643-42.532 88.014-75.944 140.797-99.307 54.779-24.246 112.965-36.541 172.944-36.541 59.977 0 118.164 12.295 172.941 36.541 43.84 19.405 83.932 45.765 119.552 78.504l227.722-202.025c6.686-5.929 15.002-8.846 23.287-8.846 9.691 0 19.336 3.991 26.275 11.811C1027.809-99.72 1026.48-77.532 1011.975-64.664zM445.161 40.008c-205.503 0-372.693 175.696-372.693 391.654 0 215.961 167.189 391.658 372.693 391.658 205.501 0 372.688-175.697 372.688-391.658C817.849 215.702 650.661 40.008 445.161 40.008z"  horiz-adv-x="1024" />

    
    <glyph glyph-name="iconfontgantanhao2" unicode="&#58885;" d="M511.514953 831.355701c-246.353804 0-445.958888-199.679785-445.958888-445.958888 0-246.300592 199.605084-445.979354 445.958888-445.979354 246.279103 0 445.964004 199.678762 445.964004 445.979354C957.478957 631.674892 757.794056 831.355701 511.514953 831.355701zM793.273105 103.621265c-75.266218-75.267241-175.329191-116.718305-281.758152-116.718305-106.455567 0-206.52775 41.450041-281.781688 116.715235-75.248821 75.260078-116.690676 175.330214-116.690676 281.777595 0 106.437148 41.441854 206.501144 116.689652 281.758152 75.255984 75.264171 175.328168 116.714212 281.782711 116.714212 106.427938 0 206.490911-41.451064 281.758152-116.717282 75.267241-75.266218 116.718305-175.329191 116.718305-281.756105C909.992433 278.959665 868.540346 178.890552 793.273105 103.621265zM510.425132 236.745215c20.612457 0 37.238113 16.656355 37.238113 37.158295L547.663244 682.703079c0 20.539802-16.625656 37.160341-37.238113 37.160341-20.466124 0-37.089733-16.620539-37.089733-37.160341l0-408.79957C473.334375 253.40157 489.959008 236.745215 510.425132 236.745215zM510.430248 154.812157c-26.594705 0-48.164976-21.574365-48.164976-48.15986 0-26.590612 21.575388-48.164976 48.164976-48.164976 26.64894 0 48.160883 21.574365 48.160883 48.164976C558.590108 133.242909 537.079188 154.812157 510.430248 154.812157z"  horiz-adv-x="1024" />

    
    <glyph glyph-name="iconfontarrows1" unicode="&#58917;" d="M536.954 125.05499999999995c-14.4407-14.4407-37.7604-14.5339-52.0859-0.209573L14.087 595.626c-14.3255 14.3255-14.2313 37.6452 0.209573 52.0859l0 0c14.4407 14.4407 37.7604 14.5339 52.0859 0.209573l470.781-470.781C551.487 162.81500000000005 551.394 139.49699999999996 536.954 125.05499999999995L536.954 125.05499999999995ZM1007.9 646.527c14.4407-14.4407 14.5339-37.7604 0.209573-52.0859L537.331 123.66300000000001c-14.3255-14.3255-37.6452-14.2313-52.0859 0.209573l0 0c-14.4407 14.4407-14.5339 37.7604-0.209573 52.0859l470.78 470.78C970.142 661.061 993.462 660.969 1007.9 646.527L1007.9 646.527Z"  horiz-adv-x="1024" />

    
    <glyph glyph-name="iconfontjiantou1" unicode="&#58929;" d="M329.955 384l436.907 436.907c14.5635 14.5635 14.5635 36.4089 0 50.9725-14.5635 14.5635-36.4089 14.5635-50.9725 0L257.138 413.128C249.856 405.845 242.574 391.282 242.574 384c0-7.28178 0-21.8453 7.28178-29.1271l466.034-466.034c14.5635-14.5635 36.4089-14.5635 50.9725 0s14.5635 36.4089 0 50.9725L329.955 384Z"  horiz-adv-x="1024" />

    
    <glyph glyph-name="yinxingqia" unicode="&#58986;" d="M917.376 0 106.624 0C47.744 0 0 50.56 0 113.024L0 655.04C0 717.44 47.744 768 106.624 768l810.752 0C976.256 768 1024 717.44 1024 655.04l0-67.712L1024 451.84l0-338.816C1024 50.56 976.256 0 917.376 0L917.376 0zM981.376 623.104c0 55.104-42.112 99.712-93.952 99.712L136.576 722.816c-51.84 0-93.888-44.608-93.888-99.712l0-35.84 938.688 0L981.376 623.104 981.376 623.104zM42.688 451.84l0-306.944c0-55.04 42.048-99.712 93.888-99.712l750.848 0c51.84 0 93.952 44.608 93.952 99.712L981.376 451.84 42.688 451.84 42.688 451.84zM661.312 113.024l64 135.488 213.376 0-64-135.488L661.312 113.024 661.312 113.024z"  horiz-adv-x="1024" />

    
    <glyph glyph-name="hongbao" unicode="&#59098;" d="M773.808 505.515c1.38084-10.9087 3.31402-21.8174 3.31402-33.1402 0-146.369-118.752-265.121-265.121-265.121s-265.121 118.752-265.121 265.121c0 11.3229 1.93317 22.0934 3.31402 33.1402-78.1555 50.4007-141.122 122.204-180.061 207.541l0-741.374c0-65.0375 52.7481-117.787 117.787-117.787l648.028 0c65.0375 0 117.787 52.7481 117.787 117.787L953.731 712.9159999999999C914.929 627.7180000000001 851.825 555.7760000000001 773.808 505.515ZM278.362 595.131C322.826 679.362 410.094 737.495 512 737.495s189.174-58.1335 233.638-142.365c91.2736 67.6611 153.411 172.468 161.42 292.877-19.8842 15.4654-43.7726 26.2361-70.9753 26.2361L187.917 914.243c-27.2026 0-51.0911-10.7706-70.9753-26.2361C124.95 767.737 187.088 662.79 278.362 595.131ZM649.808 457.184c13.9465 0 24.0266 10.0801 24.0266 24.0266s-10.0801 24.0266-24.0266 24.0266l-95.0018 0 95.1399 95.1399c9.52781 9.52781 9.52781 24.3028 0 33.8306-9.52781 9.52781-24.3028 9.52781-33.8306 0l-103.839-103.701-104.115 106.877c-9.52781 9.52781-24.3028 9.52781-33.8306 0-4.69487-4.69487-7.18038-10.7706-7.18038-16.9844 0.138084-6.35187 2.62361-12.2895 7.18038-16.7082l95.5541-98.3159-95.4162 0c-13.9465 0-24.0266-10.0801-24.0266-24.0266s10.0801-24.0266 24.0266-24.0266l113.643 0 0-43.6346-113.643 0c-13.9465 0-24.0266-10.2182-24.0266-24.1647s10.0801-24.0266 24.0266-24.0266l113.643 0 0-67.7993c0-13.9465 10.0801-24.0266 24.0266-24.0266s24.0266 10.0801 24.0266 24.0266l0 67.7993 113.643 0c13.9465 0 24.0266 10.0801 24.0266 24.0266s-10.0801 24.1647-24.0266 24.1647l-113.643 0L536.164 457.184 649.808 457.184Z"  horiz-adv-x="1024" />

    
    <glyph glyph-name="yanjing" unicode="&#59009;" d="M512.362 142.62699999999995c176.583 0 416.105 180.459 432.751 230.067-6.49571 54.3479-231.923 250.893-432.751 250.893-191.038 0-432.863-156.551-432.886-252.09C84.501 324.42999999999995 316.563 142.62699999999995 512.362 142.62699999999995M512.362 94.50800000000004C311.758 94.50800000000004 31.403 283.30899999999997 31.403 371.08399999999994c0 139.093 282.032 300.625 480.959 300.625 217.684 0 480.965-211.553 480.965-300.625C993.327 296.96799999999996 705.563 94.50800000000004 512.362 94.50800000000004L512.362 94.50800000000004 512.362 94.50800000000004 512.362 94.50800000000004ZM512.362 94.50800000000004M512.362 262.86699999999996c66.2766 0 120.244 53.9667 120.244 120.244 0 66.2733-53.9678 120.237-120.244 120.237-66.2754 0-120.239-53.9634-120.239-120.237C392.123 316.83399999999994 446.086 262.86699999999996 512.362 262.86699999999996M512.362 214.74800000000005c-92.9934 0-168.359 75.3708-168.359 168.364 0 92.9901 75.3664 168.357 168.359 168.357 92.9988 0 168.363-75.3664 168.363-168.357C680.724 290.11800000000005 605.36 214.74800000000005 512.362 214.74800000000005L512.362 214.74800000000005 512.362 214.74800000000005 512.362 214.74800000000005ZM512.362 214.74800000000005"  horiz-adv-x="1024" />

    
    <glyph glyph-name="dingdanguanli" unicode="&#58973;" d="M598.98 572.98c0 6.40412-5.23974 11.6439-11.6439 11.6439L210.075 584.623c-6.40412 0-11.6439-5.23974-11.6439-11.6439l0-2.32877c0-6.40412 5.23974-11.6439 11.6439-11.6439l377.261 0c6.40412 0 11.6439 5.23974 11.6439 11.6439L598.98 572.98ZM209.492 462.364c-6.40412 0-11.0617-5.1233-11.0617-11.5274l0-2.32877c0-6.40412 4.65754-11.7603 11.0617-11.7603L532.61 436.747l22.0069 25.6165c-0.116439 0-0.349316 0-0.465754 0L209.492 462.364ZM198.431 333.23199999999997l0-2.32877c0-6.40412 5.00686-11.7603 11.411-11.7603L431.308 319.14300000000003l22.1233 25.6165L209.841 344.76C203.438 344.76 198.431 339.63699999999994 198.431 333.23199999999997ZM198.431 212.13699999999994l0-2.32877c0-6.40412 4.89042-11.7603 11.2945-11.7603l173.494 0 9.43153 25.6165L209.726 223.664C203.321 223.664 198.431 218.54100000000005 198.431 212.13699999999994ZM209.61 101.404c-6.40412 0-11.1781-5.47261-11.1781-11.8767l0-2.32877c0-6.40412 4.77398-11.411 11.1781-11.411l135.069 0c1.39726 0 2.67809 0.116439 3.84246 0.582193-4.42467 4.07535-6.637 10.4795-4.19179 17.1165l2.79453 7.56851c-0.81507 0.116439-1.63014 0.349316-2.44521 0.349316L209.61 101.404ZM1012.45 713.755l-114.692 98.8564c-13.1577 11.2945-33.0686 9.78084-44.3631-3.26028L738.706 676.028 738.706 710.3779999999999 591.994 866.405l-41.3357 0L110.637 866.405c-37.2604 0-68.233-30.274-68.233-67.5344l0-819.728c0-37.2604 30.9727-67.5344 68.233-67.5344l559.138 0c37.2604 0 67.4179 30.274 67.4179 67.4179l0.81507 367.946L1015.83 669.5070000000001C1027.12 682.548 1025.61 702.46 1012.45 713.755ZM686.193-20.85699999999997c0-8.84933-7.56851-16.3014-16.4178-16.3014L110.637-37.158000000000015c-8.96577 0-17 7.45206-17 16.3014L93.635 798.87c0 8.84933 8.03426 16.3014 17 16.3014L550.076 815.172l0-142.055 137.98 0-0.116439-56.007L554.617 462.479l-22.0069-25.6165-79.2947-91.9865-22.1233-25.6165-0.349316-0.465754c-0.582193-0.698631-1.16439-1.39726-1.63014-2.0959-2.0959-1.97946-3.84246-4.5411-5.00686-7.45206l-31.6713-85.4659-9.43153-25.6165-35.9795-97.2261-2.79453-7.56851c-2.44521-6.637-0.232877-13.1577 4.19179-17.1165 4.30823-3.95891 10.7123-5.58905 17-2.79453l217.623 96.7605c3.37671 1.5137 6.17125 3.84246 8.1507 6.75344 0.582193 0.582193 1.28083 1.28083 1.86302 1.97946l93.8495 108.87L686.193-20.85699999999997ZM414.075 167.77300000000002l34.815 94.0823 82.555-71.144-96.1782-42.733C397.425 132.02700000000004 397.425 132.02700000000004 414.075 167.77300000000002ZM568.59 210.97299999999996L466.24 299.116l411.959 478.096 102.349-88.144L568.59 210.97299999999996ZM867.837 681.733L545.186 305.054c-5.00686-5.82193-4.30823-14.6713 1.5137-19.6781l0 0c5.82193-5.00686 14.6713-4.30823 19.6781 1.5137l322.651 376.678c5.00686 5.82193 4.30823 14.6713-1.5137 19.6781C881.693 688.254 872.843 687.5550000000001 867.837 681.733Z"  horiz-adv-x="1024" />

    
    <glyph glyph-name="home-g" unicode="&#58950;" d="M511.803392 847.60576L21.641216 357.443584h154.353664V-85.03296h292.347904V231.020544h86.919168v-316.055552h292.347904V357.443584h154.355712L511.803392 847.60576z m296.30464-450.658304v-442.476544h-213.34016V270.524416h-165.924864v-316.055552H215.498752V396.947456h-98.48832l394.79296 394.79296 394.790912-394.79296h-98.486272z"  horiz-adv-x="1024" />

    
    <glyph glyph-name="dianying" unicode="&#59001;" d="M512-128c-69.818 0-134.982 13.964-197.818 39.564-60.509 25.6-116.364 62.836-162.909 109.382-97.745 97.745-151.273 225.745-151.273 363.055 0 281.6 230.4 512 512 512 69.818 0 134.982-13.964 197.818-39.564 60.509-25.6 116.364-62.836 162.909-109.382 97.745-97.745 151.273-225.745 151.273-363.055 0-281.6-230.4-512-512-512zM512 833.164c-249.018 0-451.491-202.473-451.491-449.164 0-246.691 202.473-449.164 451.491-449.164s449.164 200.145 449.164 449.164c0 246.691-200.145 449.164-449.164 449.164zM512 514.327c-32.582 0-62.836 11.636-86.109 34.909s-34.909 53.527-34.909 86.109c0 32.582 11.636 62.836 34.909 86.109s53.527 34.909 86.109 34.909c32.582 0 62.836-11.636 86.109-34.909s34.909-53.527 34.909-86.109c0-32.582-11.636-62.836-34.909-86.109s-53.527-34.909-86.109-34.909zM512 695.855c-34.909 0-62.836-27.927-62.836-62.836s27.927-62.836 62.836-62.836c34.909 0 60.509 27.927 62.836 60.509 0 18.618-4.655 34.909-16.291 46.545-13.964 13.964-30.255 18.618-46.545 18.618zM512 4.655c-32.582 0-62.836 11.636-86.109 34.909s-34.909 53.527-34.909 86.109c0 32.582 11.636 62.836 34.909 86.109s53.527 34.909 86.109 34.909c32.582 0 62.836-11.636 86.109-34.909s34.909-53.527 34.909-86.109c0-32.582-11.636-62.836-34.909-86.109-23.273-20.945-53.527-34.909-86.109-34.909zM512 188.509c-34.909 0-62.836-27.927-62.836-62.836s27.927-62.836 62.836-62.836c34.909 0 60.509 27.927 62.836 60.509 0 18.618-4.655 34.909-16.291 46.545-13.964 11.636-30.255 18.618-46.545 18.618zM763.345 262.982c-32.582 0-62.836 11.636-86.109 34.909s-34.909 53.527-34.909 86.109c0 32.582 11.636 62.836 34.909 86.109s53.527 34.909 86.109 34.909c32.582 0 60.509-11.636 83.782-32.582 23.273-20.945 34.909-51.2 37.236-81.455 2.327-32.582-9.309-65.164-32.582-88.436-23.273-25.6-53.527-39.564-88.436-39.564zM763.345 444.509c-34.909 0-62.836-27.927-62.836-62.836s27.927-62.836 62.836-62.836c34.909 0 62.836 27.927 62.836 62.836s-27.927 62.836-62.836 62.836zM256 262.982c-32.582 0-62.836 11.636-86.109 34.909s-34.909 53.527-34.909 86.109 11.636 62.836 34.909 86.109 53.527 34.909 86.109 34.909c32.582 0 60.509-11.636 83.782-32.582 23.273-20.945 34.909-51.2 37.236-81.455 2.327-32.582-9.309-62.836-32.582-88.436-23.273-25.6-53.527-39.564-88.436-39.564zM256 444.509c-34.909 0-62.836-27.927-62.836-62.836s27.927-62.836 62.836-62.836c34.909 0 62.836 27.927 62.836 62.836s-27.927 62.836-62.836 62.836zM530.618-121.018v48.873h425.891c16.291 0 27.927-11.636 27.927-23.273 0-13.964-13.964-23.273-27.927-23.273h-425.891z"  horiz-adv-x="1024" />

    
    <glyph glyph-name="dingdan" unicode="&#58908;" d="M821.158 859.13h-274.836a34.321 34.321 0 1 1-68.642 0h-274.836a68.642 68.642 0 0 1-68.642-68.642v-847.301a68.642 68.642 0 0 1 68.642-68.642h618.313a68.642 68.642 0 0 1 68.642 68.642V790.356a68.642 68.642 0 0 1-68.642 68.7762ZM592.44 156.086H284.086a26.8132 26.8132 0 0 0 0 53.6267h308.353a26.8132 26.8132 0 0 0 0-53.6267Zm147.473 174.288H284.086a26.8132 26.8132 0 0 0 0 53.6267h455.824a26.8132 26.8132 0 0 0 0-53.6267Zm0 160.88H284.086a26.8132 26.8132 0 0 0 0 53.6267h455.824a26.8132 26.8132 0 0 0 0-53.6267Zm0 160.88H284.086a26.8132 26.8132 0 0 0 0 53.6267h455.824a26.8132 26.8132 0 0 0 0-53.6267Z"  horiz-adv-x="1024" />

    
    <glyph glyph-name="shangjiantou" unicode="&#59187;" d="M253.651376 240.553282c-6.503881 0-13.007763 2.16796-18.066337 7.226535-10.117149 10.117149-10.117149 26.015526 0 35.410021l231.971771 231.971771c10.117149 10.117149 23.847565 15.898377 39.023289 15.898377s28.183486-5.781228 39.023288-15.898377l231.249118-231.249118c10.117149-10.117149 10.117149-26.015526 0-35.410021-10.117149-10.117149-26.015526-10.117149-35.410021 0l-231.249118 231.249118c-2.16796 2.16796-4.335921 2.16796-5.781228 0l-232.694425-231.249118c-5.058574-5.058574-11.562456-7.949188-18.066337-7.949188z"  horiz-adv-x="1024" />

    
    <glyph glyph-name="dingwei" unicode="&#58947;" d="M696.378 515.469c0 101.852-82.5685 184.418-184.422 184.418-101.852 0-184.418-82.5674-184.418-184.418 0-101.855 82.5674-184.42 184.418-184.42 101.853 0 184.422 82.5651 184.422 184.42Zm-327.861 0c0 79.2166 64.2196 143.439 143.439 143.439S655.394 594.687 655.394 515.469c0-79.2189-64.2196-143.44-143.439-143.44s-143.439 64.2207-143.439 143.44Zm471.298 0c0 181.071-146.788 327.856-327.86 327.856-181.07 0-327.858-146.786-327.858-327.856 0-181.072 327.858-573.754 327.858-573.754s327.86 392.683 327.86 573.754ZM511.955 802.343c158.437 0 286.876-128.437 286.876-286.874 0-158.439-286.876-512.281-286.876-512.281S225.079 357.03 225.079 515.469c0 158.437 128.438 286.875 286.876 286.875Zm144.925-729.277a3061.14 3061.14 0 0 0-26.1427-35.3337c87.4962-10.0773 147.603-30.9339 147.603-55.0332 0-33.9513-119.264-61.4753-266.384-61.4753-147.118 0-266.382 27.5239-266.382 61.4753 0 24.0993 60.1054 44.957 147.6 55.0332a3041.57 3041.57 0 0 0-26.1427 35.3337c-96.6758-17.2624-162.442-51.2524-162.442-90.3668 0-56.584 137.614-102.458 307.367-102.458 169.756 0 307.367 45.873 307.367 102.458-0.00227555 39.1146-65.7669 73.1045-162.444 90.3668Z"  horiz-adv-x="1024" />

    
    <glyph glyph-name="yue" unicode="&#58901;" d="M633.767 627.0740000000001l104.484 143.079c4.71738 6.46622 5.17856 14.7979 1.17358 21.6791-4.00498 6.85701-11.8062 11.1387-20.2979 11.1387H588.959l-60.6414 78.3859c-4.3727 5.61547-11.3923 9.50394-18.9411 8.88377-7.5245-0.0473315-14.5441-3.45278-18.8028-9.16048l-58.5697-78.1334H304.874c-8.584 0-16.4774-4.39455-20.4363-11.391-3.95764-6.99658-3.33748-15.4192 1.6117-21.8636l106.094-137.991c-183.331-31.16-340.423-206.343-340.423-376.348v-38.318c0-187.404 167.426-339.343 373.978-339.343H598.302c206.551 0 373.978 151.939 373.978 339.343v38.318c0 162.503-161.053 329.998-338.513 371.723Zm-284.523 133.712h94.8415c7.57305 0 14.6837 3.40545 18.9642 9.13621l46.7648 62.3684 48.4675-62.6451c4.32659-5.56934 11.2989-8.88377 18.7555-8.88377h98.9606l-91.6873-125.563c-10.9324 1.05828-21.8636 1.8872-32.7729 1.8872h-102.481c-1.51825 0-3.01466-0.23059-4.55597-0.253648l-95.2554 123.954Zm577.008-543.751c0-163.86-147.129-297.157-327.95-297.157H425.698c-180.821 0-327.95 133.296-327.95 297.157v38.318c0 168.187 177.299 339.572 351.331 339.572h102.481c182.086 0 374.691-174.54 374.691-339.572v-38.318Zm-235.755 60.0893c12.6339 0 22.8757 9.2515 22.8757 20.6899 0 11.4142-10.2418 20.6887-22.8769 20.6887h-94.4944l68.9949 112.055c6.14582 9.98817 2.1639 22.5772-8.8595 28.1235-11.0234 5.56934-24.9705 1.97822-31.115-8.00995l-81.3775-132.193h-29.0907l-81.3762 132.194c-6.14461 9.98817-20.1147 13.5781-31.115 8.00874-11.0234-5.57056-15.0053-18.1584-8.8595-28.1235l68.9949-112.054h-99.9497c-12.6339 0-22.8769-9.27577-22.8769-20.6899 0-11.4155 10.243-20.6899 22.8769-20.6899h141.237v-81.2852H362.247c-12.6339 0-22.8769-9.27456-22.8769-20.6899 0-11.4155 10.243-20.6899 22.8769-20.6899h141.237v-96.1061c0-11.4155 10.2406-20.6899 22.8757-20.6899s22.8769 9.27456 22.8769 20.6899v96.1073h141.26c12.6339 0 22.8757 9.2515 22.8757 20.6887 0 11.4155-10.2418 20.6899-22.8769 20.6899H549.238v81.2852h141.261Z"  horiz-adv-x="1024" />

    
    <glyph glyph-name="youhui" unicode="&#58954;" d="M207.91 100.298c25.103-1.767 45.748-7.147 61.894-16.146 12.53 19.762 26.911 49.32 43.057 88.805 1.766 7.147 6.265 13.455 13.455 18.837 3.574 0 5.382 0.883 5.382 2.692-5.382 5.382-25.145 10.763-59.204 16.145-16.145-50.247-37.674-86.996-64.584-110.333zM716.521 229.469l-51.13-26.91c39.44-34.101 70.85-71.733 94.187-113.026l56.513 37.677c-19.763 19.719-52.939 53.82-99.57 102.259zM711.14 269.836c17.912-17.956 29.602-31.41 34.983-40.367l43.057 34.984c-41.29 34.058-73.583 60.969-96.877 80.731 3.572-1.808 10.764-2.691 21.527-2.691 10.766-1.808 18.838-2.689 24.219-2.689-3.614 12.528-4.497 39.439-2.69 80.731v67.276c-1.807 30.485 0 52.896 5.383 67.277-14.382-3.616-42.174-4.5-83.423-2.691H536.22v37.675h164.155c35.866 0 68.16-1.808 96.879-5.383v56.513c-30.527-5.383-63.702-8.074-99.569-8.074H536.22c0 19.721 3.574 35.867 10.765 48.44 3.573 1.766 5.383 3.574 5.383 5.382-1.81 1.766-8.999 3.574-21.529 5.383-12.573 0-28.719 0.882-48.44 2.69 3.575-16.146 4.458-36.792 2.692-61.895H331.699c-46.673 0-78.966 2.691-96.878 8.074v-53.822c8.957 1.766 42.132 2.691 99.57 2.691h150.7v-37.675H363.992c-41.292 0-65.511 0.883-72.659 2.691v-5.382c3.574-21.529 5.382-41.292 5.382-59.203v-75.35c-1.808-25.145-3.616-44.866-5.382-59.205v-16.145h24.22c14.338 1.765 32.293 3.573 53.821 5.381H485.09v-40.366a4191.158 4191.158 0 0 0-150.7-2.691c-46.674 0-81.658 1.767-104.952 5.383 8.956-21.528 15.222-42.173 18.838-61.895 8.956 5.383 145.317 12.53 409.042 21.528a537.041 537.041 0 0 1 53.822 2.694zM485.09 385.55H347.846v43.058H485.09v-43.058z m0 80.733H347.846v45.748H485.09v-45.748z m51.13 45.748h148.01v-45.748H536.22v45.748z m0-83.423h148.01v-43.058H536.22v43.058z m0-83.423h142.627l-32.293-21.528 29.602-16.146H536.22v37.674zM627.716 186.412c1.767-50.248-23.336-71.733-75.349-64.586h-80.733c-37.676-1.766-53.821 7.189-48.439 26.911V181.03c0 17.912 4.457 30.484 13.455 37.675l2.691 2.691c-12.572 3.573-36.792 6.264-72.659 8.072v-16.147c0-8.997 0.883-18.835 2.691-29.602v-51.129c-7.19-43.059 28.677-62.777 107.643-59.203h86.114c41.249 0 69.043 5.382 83.423 16.145 16.147 8.999 30.485 30.528 43.057 64.588-23.336 0-43.98 10.763-61.894 32.292zM520.074 154.12l56.512 18.837c-8.999 21.529-20.645 45.748-34.983 72.658L485.09 232.16c17.912-30.528 29.601-56.513 34.984-78.04zM512 895.994C229.234 895.994 0.006 666.766 0.006 384c0-282.767 229.228-511.994 511.994-511.994 282.767 0 511.994 229.228 511.994 511.994S794.767 895.994 512 895.994z m315.817-827.811c-41.039-41.039-88.811-73.251-141.987-95.743-55.02-23.273-113.506-35.073-173.83-35.073-60.324 0-118.809 11.8-173.83 35.072-53.177 22.492-100.948 54.704-141.987 95.743-41.04 41.039-73.252 88.811-95.744 141.987C77.167 265.191 65.367 323.676 65.367 384c0 60.324 11.8 118.809 35.072 173.83 22.492 53.177 54.705 100.948 95.744 141.987 41.039 41.04 88.811 73.252 141.987 95.744C393.191 818.833 451.676 830.633 512 830.633c60.324 0 118.81-11.8 173.83-35.072 53.177-22.492 100.948-54.705 141.987-95.744s73.251-88.811 95.743-141.987c23.272-55.021 35.072-113.506 35.072-173.83 0-60.324-11.8-118.809-35.072-173.83-22.492-53.177-54.704-100.948-95.743-141.987z"  horiz-adv-x="1024" />

    
    <glyph glyph-name="wenhao" unicode="&#58880;" d="M512 839.111c-250.311 0-455.111-204.8-455.111-455.111S261.689-71.111 512-71.111 967.111 133.689 967.111 384 762.311 839.111 512 839.111m0-853.333c-221.867 0-398.222 176.355-398.222 398.222S290.133 782.222 512 782.222 910.222 605.867 910.222 384 733.867-14.222 512-14.222M506.311 213.333c-17.067 0-28.444-5.689-39.822-17.066-11.378-11.378-17.067-22.756-17.067-39.823 0-17.066 5.69-28.444 17.067-39.822 11.378-11.378 22.755-17.066 39.822-17.066 17.067 0 28.445 5.688 39.822 17.066C557.511 128 563.2 139.378 563.2 156.444c0 17.067-5.689 28.445-17.067 39.823-11.377 11.377-22.755 17.066-39.822 17.066z m17.067 466.49c-56.89 0-102.4-17.067-136.534-51.2-39.822-34.134-56.888-79.645-56.888-136.534h85.333c0 34.133 5.689 62.578 22.755 79.644 17.067 22.756 39.823 34.134 79.645 34.134 28.444 0 51.2-5.69 68.267-22.756 17.066-17.067 22.755-39.822 22.755-62.578 0-22.755-5.689-39.822-22.755-56.889l-17.067-17.066c-45.511-45.511-79.645-79.645-91.022-102.4-11.378-17.067-11.378-45.511-11.378-73.956v-11.378h85.333v11.378c0 17.067 5.69 34.134 11.378 51.2 5.689 17.067 17.067 28.445 34.133 39.822 39.823 34.134 62.578 51.2 68.267 62.578 22.756 22.756 28.444 56.89 28.444 96.711 0 45.511-17.066 85.334-45.51 113.778-34.134 34.133-73.956 45.511-125.156 45.511z"  horiz-adv-x="1024" />

    
    <glyph glyph-name="weibiaoti-" unicode="&#58895;" d="M849.427-119.13l-18.0765 6.02548C63.1 121.89099999999996 14.897 703.35 11.885 709.375V745.529l201.853 150.638 207.878-271.149-105.446-117.498c36.1529-123.522 225.955-259.095 313.325-313.325l141.599 96.4077 247.044-219.931-168.714-189.803ZM72.14 712.39c3.01274-33.1402 57.2421-539.282 759.212-762.224l108.459 114.484-165.7 147.623-135.573-90.3822-15.0638 9.03822c-12.051 9.03822-322.363 189.803-361.529 376.593l-3.01274 15.0638 93.3951 102.433L210.726 808.796l-138.587-96.4077Z"  horiz-adv-x="1024" />

    
    <glyph glyph-name="youjiantou" unicode="&#58903;" d="M377.895 83.252c11.584-9.682 28.84-8.112 38.506 3.48l233.204 279.755c4.248 5.068 6.347 11.286 6.347 17.513 0 6.219-2.1 12.445-6.347 17.513L416.401 681.267c-9.665 11.593-26.93 13.163-38.506 3.48s-13.163-26.896-3.498-38.505L593.022 384 374.397 121.758c-9.682-11.626-8.113-28.807 3.498-38.506z"  horiz-adv-x="1024" />

    
    <glyph glyph-name="piaoquan" unicode="&#58970;" d="M947.2 514.327273h6.981818V733.090909c0 51.2-41.890909 93.090909-93.090909 93.090909H162.909091C111.709091 826.181818 69.818182 784.290909 69.818182 733.090909v-218.763636c72.145455 0 130.327273-58.181818 130.327273-130.327273 0-72.145455-58.181818-130.327273-130.327273-130.327273V34.90909099999999c0-51.2 41.890909-93.090909 93.090909-93.090909h698.181818c51.2 0 93.090909 41.890909 93.090909 93.090909v218.763636c-95.418182 0-165.236364 100.072727-111.709091 200.145455 18.618182 39.563636 60.509091 60.509091 104.727273 60.509091zM800.581818 477.090909c-32.581818-60.509091-32.581818-128 2.327273-183.854545 23.272727-39.563636 62.836364-67.490909 104.727273-79.127273V34.90909099999999c0-25.6-20.945455-46.545455-46.545455-46.545455H162.909091c-25.6 0-46.545455 20.945455-46.545455 46.545455v176.872727c74.472727 20.945455 130.327273 88.436364 130.327273 172.218182 0 81.454545-55.854545 151.272727-130.327273 172.218182V733.090909c0 25.6 20.945455 46.545455 46.545455 46.545455h698.181818c25.6 0 46.545455-20.945455 46.545455-46.545455v-176.872727c-46.545455-9.309091-86.109091-39.563636-107.054546-79.127273zM684.218182 577.163636H339.781818c-13.963636 0-23.272727-9.309091-23.272727-23.272727s9.309091-23.272727 23.272727-23.272727h344.436364c13.963636 0 23.272727 9.309091 23.272727 23.272727s-9.309091 23.272727-23.272727 23.272727zM684.218182 407.272727H339.781818c-13.963636 0-23.272727-9.309091-23.272727-23.272727s9.309091-23.272727 23.272727-23.272727h344.436364c13.963636 0 23.272727 9.309091 23.272727 23.272727s-9.309091 23.272727-23.272727 23.272727zM684.218182 235.05454499999996H339.781818c-13.963636 0-23.272727-9.309091-23.272727-23.272727s9.309091-23.272727 23.272727-23.272727h344.436364c13.963636 0 23.272727 9.309091 23.272727 23.272727s-9.309091 23.272727-23.272727 23.272727z"  horiz-adv-x="1042" />

    
    <glyph glyph-name="shezhi" unicode="&#58922;" d="M976.211 501.17L899.326 456.369a370.01 370.01 0 0 0 0-144.74l76.968-44.8014a66.5703 66.5703 0 0 0 24.0681-90.5348L934.538 61.462999999999965a65.452 65.452 0 0 0-89.7892-24.2545l-77.7552 45.2778a393.187 393.187 0 0 0-123.531-73.0533V-46.82299999999998a66.0111 66.0111 0 0 0-65.7211-66.2803h-131.484a66.0111 66.0111 0 0 0-65.7419 66.2803v56.2555a393.146 393.146 0 0 0-123.531 73.0533l-77.7552-45.2778a65.4311 65.4311 0 0 0-89.7684 24.2545l-65.7419 114.81a66.5703 66.5703 0 0 0 24.0681 90.5348l76.8852 44.8222a370.073 370.073 0 0 0 0 144.74l-76.8852 44.8014a66.5703 66.5703 0 0 0-24.0681 90.5348l65.7419 114.81a65.4311 65.4311 0 0 0 89.7892 24.2545l77.7552-45.2571a393.146 393.146 0 0 0 123.531 73.0533V814.823A66.0111 66.0111 0 0 0 446.258 881.103h131.462a66.0111 66.0111 0 0 0 65.7419-66.2803v-56.2555a393.146 393.146 0 0 0 123.531-73.0533l77.7552 45.2571a65.4311 65.4311 0 0 0 89.7892-24.2545l65.7211-114.81a66.5703 66.5703 0 0 0-24.0474-90.5348Zm-49.296 86.1023l-32.8709 57.3947a32.7259 32.7259 0 0 1-44.9049 12.1376L757.838 603.553a327.487 327.487 0 0 1-180.201 105.096V781.682a32.9952 32.9952 0 0 1-32.8709 33.1402h-65.6383a32.9952 32.9952 0 0 1-32.8709-33.1402v-72.9291a327.466 327.466 0 0 1-180.201-105.096l-91.3219 53.1693a32.7259 32.7259 0 0 1-44.9049-12.1376l-32.8709-57.3947a33.2851 33.2851 0 0 1 12.034-45.2778l91.6946-53.3764a322.247 322.247 0 0 1 0-209.198l-91.674-53.3764a33.2851 33.2851 0 0 1-12.034-45.2778l32.8709-57.3947a32.7053 32.7053 0 0 1 44.9049-12.1376l91.4047 53.19a327.487 327.487 0 0 1 180.201-105.096V-13.682000000000016a32.9952 32.9952 0 0 1 32.8709-33.1402h65.7419a32.9952 32.9952 0 0 1 32.8709 33.1402v72.9291a327.487 327.487 0 0 1 180.201 105.096l91.3219-53.1693a32.7053 32.7053 0 0 1 44.9049 12.1376l32.8709 57.3947a33.2851 33.2851 0 0 1-12.034 45.2778l-91.6946 53.3764a322.247 322.247 0 0 1 0 209.198l91.6946 53.3764a33.2851 33.2851 0 0 1 11.8062 45.3398ZM512 218.29999999999995a165.7 165.7 0 1 0 164.334 165.7A165.018 165.018 0 0 0 512 218.29999999999995Zm0 265.121a99.4205 99.4205 0 1 1 98.592-99.4205A99.0064 99.0064 0 0 1 512 483.42Z"  horiz-adv-x="1024" />

    
    <glyph glyph-name="guanbi" unicode="&#58888;" d="M583.168 372.224L958.464 747.52c18.944 18.944 18.944 50.176 0 69.12l-2.048 2.048c-18.944 18.944-50.176 18.944-69.12 0L512 442.88 136.704 818.688c-18.944 18.944-50.176 18.944-69.12 0l-2.048-2.048c-19.456-18.944-19.456-50.176 0-69.12l375.296-375.296L65.536-3.072c-18.944-18.944-18.944-50.176 0-69.12l2.048-2.048c18.944-18.944 50.176-18.944 69.12 0L512 301.056 887.296-74.24c18.944-18.944 50.176-18.944 69.12 0l2.048 2.048c18.944 18.944 18.944 50.176 0 69.12L583.168 372.224z"  horiz-adv-x="1024" />

    
    <glyph glyph-name="piaoquan1" unicode="&#59027;" d="M323.47 525.398h377.061v-94.2655h-377.061v94.2655Zm0-188.53h377.061v-94.2655h-377.061v94.2655Zm706.99-47.1328v-282.796a47.1328 47.1328 0 0 0-47.1328-47.1328H40.672a47.1328 47.1328 0 0 0-47.1328 47.1328v282.796a94.2655 94.2655 0 1 1 0 188.53V761.061a47.1328 47.1328 0 0 0 47.1328 47.1328h942.655a47.1328 47.1328 0 0 0 47.1328-47.1328v-282.796a94.2655 94.2655 0 1 1 0-188.53Zm-94.2655-47.1328c-42.6079 23.5663-94.2655 59.2459-94.2655 141.398s51.6574 117.831 94.2655 141.398V713.9300000000001H87.806v-188.53c47.1328-23.5663 94.2655-64.2891 94.2655-141.398s-47.1328-117.831-94.2655-141.398v-188.53h848.388v188.53Z"  horiz-adv-x="1024" />

    
    <glyph glyph-name="wode" unicode="&#58894;" d="M725.333-145.06999999999994c-136.533 0-247.467 110.933-247.467 247.467S588.8 349.86699999999996 725.333 349.86699999999996 972.8 238.933 972.8 102.39999999999998 861.867-145.06999999999994 725.333-145.06999999999994ZM448.853 389.12c-30.72 0-61.44 5.12-90.4533 17.0667-61.44 23.8933-107.52 69.9733-134.827 129.707s-27.3067 126.293-3.41333 187.733 69.9733 107.52 129.707 134.827C409.6 882.347 665.6 889.173 698.027 851.627c17.0667-18.7733 13.6533-56.32-8.53333-153.6-1.70667-5.12-1.70667-10.24-3.41333-11.9467-1.70667-11.9467-3.41333-22.1867-5.12-32.4267-15.36-105.813-30.72-197.973-134.827-244.053-30.72-13.6533-63.1467-20.48-97.2797-20.48Zm73.3867 436.907c-61.44 0-124.587-5.12-150.187-15.36-47.7867-20.48-83.6267-58.0267-102.4-105.813-18.7733-47.7867-17.0667-98.9869 3.41333-146.773s58.0267-83.6267 105.813-102.4c47.7867-18.7733 100.693-18.7733 146.773 1.70667 78.5067 34.1333 88.7467 102.4 104.107 204.8 1.70667 10.24 3.41333 22.1867 5.12 34.1333 0 1.70667 1.70667 6.82667 3.41333 15.36 17.0667 66.56 18.7733 93.8662 18.7733 105.813-20.48 5.12-76.8 8.53333-134.827 8.53333Zm141.653-11.9467Zm-6.82667 8.53333ZM452.267-97.27499999999998c-102.4 0-197.973 11.9467-269.653 34.1333-110.933 34.1333-134.827 81.92-134.827 117.76 0 150.187 116.053 279.893 288.427 322.56 6.82667 1.70667 11.9467 0 17.0667-3.41333 46.08-35.84 107.52-42.6667 162.133-20.48 11.9467 5.12 23.8933 11.9467 34.1333 20.48 5.12 3.41333 11.9467 5.12 17.0667 3.41333 168.96-42.6667 288.427-174.08 288.427-322.56 0-112.64-216.747-151.893-402.773-151.893ZM336.213 332.79999999999995c-145.067-39.2533-247.467-153.6-247.467-278.187 0-61.44 158.72-109.227 361.813-109.227s361.813 47.7867 361.813 109.227c0 126.293-100.693 238.933-247.467 278.187-11.9467-8.53333-22.1867-13.6533-34.1333-18.7733-63.1467-29.0133-136.533-20.48-194.56 18.7733ZM435.2 508.587c-13.6533 0-25.6 11.9467-25.6 25.6s10.24 25.6 25.6 25.6c3.41333 0 35.84 1.70667 54.6133 27.3067 17.0667 22.1867 15.36 47.7867 13.6533 54.6133-1.70667 13.6533 6.82667 27.3067 22.1867 29.0133 13.6533 1.70667 27.3067-6.82667 29.0133-20.48 1.70667-11.9467 6.82667-56.32-23.8933-95.5734-34.1333-42.6667-85.3333-46.08-95.5734-46.08ZM529.067 136.53300000000001H351.573c-11.9467 0-20.48 8.53333-20.48 20.48 0 61.44 49.4933 110.933 109.227 110.933s109.227-49.4933 109.227-110.933c0-10.24-8.53333-20.48-20.48-20.48Zm-153.6 40.96h131.413c-8.53333 29.0133-34.1333 49.4933-64.8533 49.4933s-58.0267-20.48-66.56-49.4933Z"  horiz-adv-x="1024" />

    


  </font>
</defs>
</svg>
